<svg viewBox="0 0 120 120" fill="none" xmlns="http://www.w3.org/2000/svg">
<path fill-rule="evenodd" clip-rule="evenodd" d="M1.48396e-06 10.0255C1.48396e-06 7.36655 1.05625 4.81654 2.93639 2.9364C4.81653 1.05626 7.36654 1.33653e-05 10.0255 1.33653e-05H109.964C111.281 -0.00213873 112.586 0.255629 113.804 0.758559C115.022 1.26149 116.129 1.9997 117.061 2.93094C117.994 3.86217 118.733 4.96814 119.237 6.18552C119.742 7.4029 120.001 8.70779 120 10.0255V109.964C120.001 111.282 119.743 112.587 119.239 113.805C118.736 115.023 117.997 116.13 117.066 117.062C116.134 117.994 115.028 118.733 113.81 119.237C112.592 119.742 111.287 120.001 109.969 120H10.0255C8.70843 120 7.40432 119.741 6.18762 119.236C4.97092 118.732 3.86548 117.993 2.93446 117.062C2.00344 116.13 1.26508 115.024 0.761578 113.807C0.258072 112.59 -0.000715067 111.286 1.48396e-06 109.969V10.0255ZM47.4982 45.7527H63.7473V53.9127C66.0927 49.2218 72.0927 45 81.1091 45C98.3945 45 102.491 54.3436 102.491 71.4873V103.244H84.9982V75.3927C84.9982 65.6291 82.6527 60.12 76.6964 60.12C68.4327 60.12 64.9964 66.06 64.9964 75.3927V103.244H47.4982V45.7527ZM17.4982 102.496H34.9964V45H17.4982V102.491V102.496ZM37.5 26.2473C37.533 27.7455 37.2664 29.2352 36.7159 30.629C36.1653 32.0228 35.3419 33.2926 34.294 34.3638C33.2461 35.4351 31.9947 36.2862 30.6134 36.8673C29.2321 37.4484 27.7486 37.7477 26.25 37.7477C24.7514 37.7477 23.2679 37.4484 21.8866 36.8673C20.5053 36.2862 19.2539 35.4351 18.206 34.3638C17.1581 33.2926 16.3347 32.0228 15.7841 30.629C15.2336 29.2352 14.967 27.7455 15 26.2473C15.0648 23.3065 16.2785 20.508 18.3812 18.451C20.4839 16.3941 23.3085 15.2423 26.25 15.2423C29.1915 15.2423 32.0161 16.3941 34.1188 18.451C36.2215 20.508 37.4352 23.3065 37.5 26.2473V26.2473Z" fill="currentColor"/>
</svg>
